<svg xmlns="http://www.w3.org/2000/svg" viewBox="0 0 69.64 46.16"><defs><style>.cls-1{fill:#fff;}.cls-2{fill:#d76826;}</style></defs><title>搞資訊logo（暫時）</title><g id="圖層_2" data-name="圖層 2"><g id="圖層_1-2" data-name="圖層 1"><path class="cls-1" d="M34.37,24a11.34,11.34,0,0,1-11,10.4A11.47,11.47,0,0,1,11.73,23.55,11.35,11.35,0,0,1,22.21,11.78a.86.86,0,0,0,.81-.85V.9A.85.85,0,0,0,22.15,0a23.07,23.07,0,1,0,24,24.07.84.84,0,0,0-.85-.88h-10A.87.87,0,0,0,34.37,24Z"/><rect class="cls-1" x="57.51" width="11.53" height="11.53" rx="0.85"/><path class="cls-2" d="M34.57,21.74A11.33,11.33,0,0,1,45,11.78a.86.86,0,0,0,.82-.85V.9A.86.86,0,0,0,44.9,0,23.08,23.08,0,0,0,22.8,21.63a.85.85,0,0,0,.86.89H33.72A.87.87,0,0,0,34.57,21.74Z"/><path class="cls-2" d="M57.9,23.43A11.36,11.36,0,0,1,47.42,33.85a.84.84,0,0,0-.77.85v10a.86.86,0,0,0,.88.86,23.06,23.06,0,0,0,22.1-22,.84.84,0,0,0-.85-.88h-10A.85.85,0,0,0,57.9,23.43Z"/></g></g></svg>